<?xml version="1.0" standalone="no"?>
<!DOCTYPE svg PUBLIC "-//W3C//DTD SVG 20010904//EN"
 "http://www.w3.org/TR/2001/REC-SVG-20010904/DTD/svg10.dtd">
<svg version="1.0" xmlns="http://www.w3.org/2000/svg"
 width="100.000000pt" height="75.000000pt" viewBox="0 0 100.000000 75.000000"
 preserveAspectRatio="xMidYMid meet">
<metadata>
Created by potrace 1.16, written by Peter Selinger 2001-2019
</metadata>
<g transform="translate(0.000000,75.000000) scale(0.100000,-0.100000)"
fill="#000000" stroke="none">
<path d="M313 658 c2 -7 12 -13 23 -13 13 0 20 -9 24 -30 5 -25 7 -27 15 -14
15 24 73 51 111 51 37 0 99 -34 114 -62 14 -26 12 -114 -2 -128 -9 -9 -8 -12
4 -12 20 0 66 53 74 85 10 39 -24 95 -70 116 -33 15 -66 19 -169 19 -99 0
-128 -3 -124 -12z"/>
<path d="M430 627 c-33 -17 -70 -84 -70 -128 0 -33 17 -66 58 -107 7 -8 52
-35 100 -61 82 -45 87 -49 90 -83 5 -53 -26 -78 -95 -78 l-53 0 0 90 c0 50 -4
90 -8 90 -5 0 -27 16 -50 36 l-42 36 0 -131 c0 -81 -4 -131 -10 -131 -5 0 -10
-7 -10 -15 0 -25 213 -21 267 5 61 29 88 73 88 140 0 77 -27 111 -136 165
-100 50 -111 62 -107 107 2 26 10 36 35 48 18 8 33 18 33 23 0 12 -63 8 -90
-6z"/>
</g>
</svg>
