<?xml version="1.0" standalone="no"?>
<!DOCTYPE svg PUBLIC "-//W3C//DTD SVG 20010904//EN"
 "http://www.w3.org/TR/2001/REC-SVG-20010904/DTD/svg10.dtd">
<svg version="1.0" xmlns="http://www.w3.org/2000/svg"
 width="100.000000pt" height="75.000000pt" viewBox="0 0 100.000000 75.000000"
 preserveAspectRatio="xMidYMid meet">

<g transform="translate(0.000000,75.000000) scale(0.100000,-0.100000)"
fill="#000000" stroke="none">
<path d="M315 661 c-3 -5 7 -11 22 -13 22 -2 28 -8 27 -25 -1 -28 7 -29 23 -3
16 24 80 42 124 34 67 -13 114 -80 106 -150 -5 -47 10 -51 37 -9 44 68 1 144
-92 164 -64 13 -239 15 -247 2z"/>
<path d="M445 626 c-54 -24 -70 -51 -70 -121 0 -57 3 -67 30 -95 17 -17 62
-47 102 -65 84 -40 112 -70 105 -114 -6 -45 -44 -71 -103 -71 l-49 0 0 89 0
88 -40 28 c-22 15 -40 32 -40 36 0 5 -3 9 -7 9 -5 0 -7 -56 -5 -125 3 -108 1
-125 -12 -125 -9 0 -16 -4 -16 -10 0 -14 209 -13 251 1 102 35 139 150 72 229
-14 17 -66 51 -115 76 -94 47 -116 72 -104 119 4 16 18 31 37 39 16 7 26 15
22 19 -9 10 -24 8 -58 -7z"/>
</g>
</svg>
