<svg xmlns="http://www.w3.org/2000/svg" width="512" height="512"><defs><clipPath id="b"><path fill="#3b3c3d" d="M868 600.362c-62.668 21.046-59.642 119.47-74 184-2.61 11.732-2 36-2 36s33.734 17.463 52 22c29.874 7.422 61.269 6.227 92 8 46.608 2.69 93.331 2.74 140 4 78.663 2.124 157.308 6.124 236 6 23.343-.037 70-2 70-2s13.614 11.712 22 14c37.967 10.362 78.878.286 118-4 39.773-4.357 81.466-5.685 118-22 9.984-4.458 21.17-10.19 26-20 3.829-7.775 2.914-17.838 0-26-3.185-8.923-10.058-16.832-18-22-79.981-52.046-188.188-38.653-276-76-64.917-27.61-121.873-71.106-182-108-27.587-16.927-82-52-82-52l-4 24s29.225 13.965 24 24c-5.315 10.208-22.934-9.162-34-6-33.59 9.6-45.375 57.507-78 70-18.055 6.914-39.368 5.16-58 0-33.716-9.339-56.835-65.138-90-54z"/></clipPath><clipPath id="a"><path fill="#3b3c3d" d="M1160 730.362c-62.668 21.046-59.642 119.47-74 184-2.61 11.732-2 36-2 36s33.734 17.463 52 22c29.874 7.422 61.269 6.227 92 8 46.608 2.69 93.331 2.74 140 4 78.663 2.124 157.308 6.124 236 6 23.343-.037 70-2 70-2s13.614 11.712 22 14c37.967 10.362 78.878.286 118-4 39.773-4.357 81.466-5.685 118-22 9.984-4.458 21.17-10.19 26-20 3.829-7.775 2.914-17.838 0-26-3.185-8.923-10.058-16.832-18-22-79.981-52.046-188.188-38.653-276-76-64.917-27.61-121.873-71.106-182-108-27.587-16.927-82-52-82-52l-4 24s29.225 13.965 24 24c-5.315 10.208-22.934-9.162-34-6-33.59 9.6-45.375 57.507-78 70-18.055 6.914-39.368 5.16-58 0-33.716-9.339-56.835-65.138-90-54z"/></clipPath></defs><path fill="#6b6c6d" d="M-659.36 528.522c-42.576 10.738-47.082 56.391-77.955 69.96-17.997 7.91-39.346 6.884-57.967 0-32.796-12.125-56.802-65.1-89.948-53.969-29.611 9.944-44.53 37.196-53.563 69.96h299.422l14.491-66.9c-10.5-3.609-25.441-21.33-34.48-19.05z" transform="matrix(.5 0 0 .5 502.227 -156.335)"/><path fill="#3b3c3d" d="M-888.229 555.007c-62.632 21.034-59.607 119.402-73.957 183.895-2.61 11.725-2 35.98-2 35.98s33.716 17.452 51.971 21.986c29.857 7.418 61.234 6.223 91.947 7.996 46.582 2.688 93.278 2.738 139.92 3.998 78.619 2.122 157.218 6.12 235.865 5.996 23.33-.037 69.96-1.999 69.96-1.999s13.607 11.705 21.988 13.992c37.945 10.356 78.833.286 117.932-3.997 39.75-4.355 81.42-5.682 117.932-21.988 9.979-4.456 21.158-10.185 25.986-19.988 3.826-7.771 2.912-17.828 0-25.985-3.184-8.919-10.053-16.823-17.99-21.988-79.936-52.016-188.08-38.63-275.842-75.956-64.88-27.594-121.803-71.066-181.896-107.939-27.571-16.917-81.953-51.97-81.953-51.97l-3.998 23.986s29.208 13.957 23.987 23.987c-5.312 10.202-22.922-9.157-33.981-5.997-33.57 9.594-45.35 57.474-77.955 69.96-18.045 6.91-39.346 5.158-57.967 0-33.697-9.333-56.802-65.1-89.949-53.969z" transform="matrix(.5 0 0 .5 502.227 -156.335)"/><path fill="#b9e55d" d="M1099.132 809.144s164.247 104.375 255.162 132.078c12.65 3.855 26.33 7.023 39.256 4.403 8.775-1.779 16.498-7.664 23.76-13.208 52.264-39.904 77.398-124.077 139.46-141.984 7.175-2.07 16.26.1 21.694 5.503 4.22 4.196 5.57 11.476 5.165 17.61-1.07 16.207-15.426 28.409-19.627 44.027-2.484 9.23-6.53 19.738-3.1 28.617.84 2.172 2.964 4.532 5.166 4.402 17.018-1.004 26.19-23.79 36.156-38.523 6.303-9.317 4.504-26.423 14.463-30.818 5.03-2.22 10.695 2.766 15.496 5.503 3.461 1.974 8.096 3.722 9.297 7.705 2.966 9.836-6.264 19.608-8.264 29.718-2.793 14.115-10.437 29.638-5.166 42.925 1.34 3.38 4.846 7.04 8.265 6.604 15.059-1.921 20.783-23.788 28.925-37.422 4.3-7.2 3.97-17.928 10.33-23.114 3.058-2.492 7.594-3.032 11.364-2.201 6.079 1.34 12.566 5.175 15.495 11.006 6.662 13.263 0 45.127 0 45.127l4.133 9.906 82.643 11.007 85.743-5.504s36.878-.144 49.586-12.107c3.02-2.843.293-10.798 4.132-12.107 12.735-4.345 25.433 12.51 33.057 24.214 5.667 8.7 86.044-.346 81.891 9.275-10.617 24.595-118.557 49.895-142.84 57.865-29.554 9.7-61.133 10.36-91.941 13.208-43.945 4.062-132.23 5.503-132.23 5.503s8.048-49.482-3.099-69.34c-1.03-1.837-3.184-3.651-5.165-3.303-20.49 3.603-40.289 50.63-40.289 50.63h-40.288s32.03-56.085 18.594-79.247c-1.669-2.877-6.29-3.285-9.297-2.201-32.41 11.678-66.115 83.65-66.115 83.65l-26.859-1.101s28.309-76.389 29.958-116.67c.168-4.097 1.478-10.504-2.066-12.107-5.714-2.584-10.723 6.777-15.495 11.007-39.127 34.678-106.404 116.67-106.404 116.67l-176.65-1.102L1095 831.158l7.231-17.611z" clip-path="url(#a)" transform="matrix(.50706 0 0 .46417 -531.015 -208.668)"/><path fill="#24e1ee" d="M786 822.362c-6.386-10.247 1.192-24.257 4-36 6.623-27.699 4.343-69.03 4.343-69.03S879.14 734.05 906 752.363c19.537 13.32 39.42 27.385 54 46 11.95 15.257 44.879 58.271 34.485 74.628-14.306 22.514-64.703-14.293-91.313-16.143-23.43-1.628-30.161.176-53.03-5.171-17.248-4.033-54.773-14.28-64.142-29.314z" clip-path="url(#b)" transform="translate(-375.639 -178.84) scale(.49971)"/><path fill="#6b6c6d" d="M-966.164 766.886c26.193-15.036 56.495 22.532 86.222 27.984 40.147 7.363 81.513 4.751 122.315 5.996 110.908 3.384 221.93 1.284 332.856 3.998 18.054.442 37.247-4.366 54.14 1.999 8.886 3.348 17.047 8.023 26.067 10.993 53.37 17.577 113.041 2.516 168.433-6.996 76.633-3.408 103.225-82.005 102.264-21.987-3.261 16.132-13.57 31.224-26.067 41.976-24.25 20.865-57.527 28.862-88.228 37.978-33.805 10.038-69.125 14.98-104.268 17.99-65.928 5.645-132.35 1.111-198.511 0-59.512-1-118.94-5.679-178.46-5.997-58.164-.31-116.323 6.128-174.448 3.998-20.803-.762-42.03-.715-62.16-5.996-12.732-3.34-25.24-8.561-36.093-15.991-7.792-5.335-15.558-11.699-20.052-19.989-7.79-14.37-10.072-31.638-10.026-47.972.027-9.54-2.277-23.224 6.016-27.984z" transform="matrix(.5 0 0 .5 502.227 -156.335)"/><path fill="#24e1ee" d="m-770.296 798.867 397.772 3.998 44.127 19.514s117.87-3.453 177.628-16.91c21.727-4.894 42.779-18.977 55.847-31.092 7.365-6.829 12.454-18.667 12.454-18.667s12.844 18.733 9.44 27.963c-10.162 27.55-46.863 39.258-75.624 45.177-9.876 2.033-29.983-3.998-29.983-3.998l-13.992 11.994-23.986-9.995-17.99 19.989-19.989-7.996-15.99 13.992-21.988-11.993-15.99 11.993-23.987-11.993-11.993 11.993-379.782-23.986z" transform="matrix(.5 0 0 .5 502.227 -156.335)"/><path fill="#384241" d="m1530.172 775.19-38.063-39.091c-95.821-59.828-165.244-95.66-259.109-158.237l-3 24.5c97.428 61.57 199.032 117.165 300.172 172.829z" transform="matrix(.5 0 0 .5 -438.558 -196.82)"/><path fill="#6b6c6d" d="M1293.127 666.735c-1.828-7.32 6.453-14.233 12.298-19.005 7.129-5.822 16.883-12.66 25.713-10.062 7.938 2.335 11.436 12.45 14.534 20.123 2.959 7.33 8.855 17.801 3.354 23.478-2.35 2.423-7.352.892-10.062-1.118-2.28-1.691-2.883-5.027-3.354-7.826-.868-5.158 2.137-10.522 1.118-15.652-.812-4.086-1.622-9.908-5.59-11.18-6.826-2.187-13.93 5.001-19.006 10.062-4.486 4.473-2.867 14.977-8.943 16.77-3.68 1.086-9.133-1.868-10.062-5.59zM1373.909 679.717c-1.923 5.53 9.531 12.66 14.142 13.435 4.61.775 3.28-5.208 7.778-3.536 4.498 1.672 7.437 12.38 8.485 18.385 1.048 6.005-2.802 12.454-1.414 16.264 1.388 3.809 2.819 5.5 5.657 5.656 2.838.158 5.215-1.2 7.07-5.656 1.857-4.457-.842-14.126-2.12-19.8-1.28-5.673-1.05-9.248-4.95-14.141-3.9-4.894-12.904-10.536-19.092-12.021-6.188-1.486-13.634-4.116-15.556 1.414zM1421.285 715.072l18.384-4.95-5.656-4.242 27.577 14.85-2.122 2.828 14.85 26.87-3.536 9.9h-6.364l-6.364-13.436-11.314-25.456-9.192 3.536zM1477.853 740.528l16.97-6.364 16.264 10.607 5.657 3.535 12.02-.707 4.95 32.527-8.485 2.121-7.07-24.041-11.314-4.243-5.657-16.97 2.828 10.606-10.606 2.121z" transform="matrix(.5 0 0 .5 -438.558 -196.82)"/><path fill="#6b6c6d" d="M-659.36 528.522c-42.576 10.738-47.082 56.391-77.955 69.96-17.997 7.91-39.346 6.884-57.967 0-32.796-12.125-56.802-65.1-89.948-53.969-29.611 9.944-44.53 37.196-53.563 69.96h299.422l14.491-66.9c-10.5-3.609-25.441-21.33-34.48-19.05z" transform="matrix(-.5 0 0 .5 9.773 -24.906)"/><path fill="#3b3c3d" d="M-888.229 555.007c-62.632 21.034-59.607 119.402-73.957 183.895-2.61 11.725-2 35.98-2 35.98s33.716 17.452 51.971 21.986c29.857 7.418 61.234 6.223 91.947 7.996 46.582 2.688 93.278 2.738 139.92 3.998 78.619 2.122 157.218 6.12 235.865 5.996 23.33-.037 69.96-1.999 69.96-1.999s13.607 11.705 21.988 13.992c37.945 10.356 78.833.286 117.932-3.997 39.75-4.355 81.42-5.682 117.932-21.988 9.979-4.456 21.158-10.185 25.986-19.988 3.826-7.771 2.912-17.828 0-25.985-3.184-8.919-10.053-16.823-17.99-21.988-79.936-52.016-188.08-38.63-275.842-75.956-64.88-27.594-121.803-71.066-181.896-107.939-27.571-16.917-81.953-51.97-81.953-51.97l-3.998 23.986s29.208 13.957 23.987 23.987c-5.312 10.202-22.922-9.157-33.981-5.997-33.57 9.594-45.35 57.474-77.955 69.96-18.045 6.91-39.346 5.158-57.967 0-33.697-9.333-56.802-65.1-89.949-53.969z" transform="matrix(-.5 0 0 .5 9.773 -24.906)"/><path fill="#b9e55d" d="M1099.132 809.144s164.247 104.375 255.162 132.078c12.65 3.855 26.33 7.023 39.256 4.403 8.775-1.779 16.498-7.664 23.76-13.208 52.264-39.904 77.398-124.077 139.46-141.984 7.175-2.07 16.26.1 21.694 5.503 4.22 4.196 5.57 11.476 5.165 17.61-1.07 16.207-15.426 28.409-19.627 44.027-2.484 9.23-6.53 19.738-3.1 28.617.84 2.172 2.964 4.532 5.166 4.402 17.018-1.004 26.19-23.79 36.156-38.523 6.303-9.317 4.504-26.423 14.463-30.818 5.03-2.22 10.695 2.766 15.496 5.503 3.461 1.974 8.096 3.722 9.297 7.705 2.966 9.836-6.264 19.608-8.264 29.718-2.793 14.115-10.437 29.638-5.166 42.925 1.34 3.38 4.846 7.04 8.265 6.604 15.059-1.921 20.783-23.788 28.925-37.422 4.3-7.2 3.97-17.928 10.33-23.114 3.058-2.492 7.594-3.032 11.364-2.201 6.079 1.34 12.566 5.175 15.495 11.006 6.662 13.263 0 45.127 0 45.127l4.133 9.906 82.643 11.007 85.743-5.504s36.878-.144 49.586-12.107c3.02-2.843.293-10.798 4.132-12.107 12.735-4.345 25.433 12.51 33.057 24.214 5.667 8.7 86.044-.346 81.891 9.275-10.617 24.595-118.557 49.895-142.84 57.865-29.554 9.7-61.133 10.36-91.941 13.208-43.945 4.062-132.23 5.503-132.23 5.503s8.048-49.482-3.099-69.34c-1.03-1.837-3.184-3.651-5.165-3.303-20.49 3.603-40.289 50.63-40.289 50.63h-40.288s32.03-56.085 18.594-79.247c-1.669-2.877-6.29-3.285-9.297-2.201-32.41 11.678-66.115 83.65-66.115 83.65l-26.859-1.101s28.309-76.389 29.958-116.67c.168-4.097 1.478-10.504-2.066-12.107-5.714-2.584-10.723 6.777-15.495 11.007-39.127 34.678-106.404 116.67-106.404 116.67l-176.65-1.102L1095 831.158l7.231-17.611z" clip-path="url(#a)" transform="matrix(-.50706 0 0 .46417 1043.015 -77.24)"/><path fill="#24e1ee" d="M786 822.362c-6.386-10.247 1.192-24.257 4-36 6.623-27.699 4.343-69.03 4.343-69.03S879.14 734.05 906 752.363c19.537 13.32 39.42 27.385 54 46 11.95 15.257 44.879 58.271 34.485 74.628-14.306 22.514-64.703-14.293-91.313-16.143-23.43-1.628-30.161.176-53.03-5.171-17.248-4.033-54.773-14.28-64.142-29.314z" clip-path="url(#b)" transform="matrix(-.49971 0 0 .49971 887.639 -47.412)"/><path fill="#6b6c6d" d="M-966.164 766.886c26.193-15.036 56.495 22.532 86.222 27.984 40.147 7.363 81.513 4.751 122.315 5.996 110.908 3.384 221.93 1.284 332.856 3.998 18.054.442 37.247-4.366 54.14 1.999 8.886 3.348 17.047 8.023 26.067 10.993 53.37 17.577 113.041 2.516 168.433-6.996 76.633-3.408 103.225-82.005 102.264-21.987-3.261 16.132-13.57 31.224-26.067 41.976-24.25 20.865-57.527 28.862-88.228 37.978-33.805 10.038-69.125 14.98-104.268 17.99-65.928 5.645-132.35 1.111-198.511 0-59.512-1-118.94-5.679-178.46-5.997-58.164-.31-116.323 6.128-174.448 3.998-20.803-.762-42.03-.715-62.16-5.996-12.732-3.34-25.24-8.561-36.093-15.991-7.792-5.335-15.558-11.699-20.052-19.989-7.79-14.37-10.072-31.638-10.026-47.972.027-9.54-2.277-23.224 6.016-27.984z" transform="matrix(-.5 0 0 .5 9.773 -24.906)"/><path fill="#24e1ee" d="m-770.296 798.867 397.772 3.998 44.127 19.514s117.87-3.453 177.628-16.91c21.727-4.894 42.779-18.977 55.847-31.092 7.365-6.829 12.454-18.667 12.454-18.667s12.844 18.733 9.44 27.963c-10.162 27.55-46.863 39.258-75.624 45.177-9.876 2.033-29.983-3.998-29.983-3.998l-13.992 11.994-23.986-9.995-17.99 19.989-19.989-7.996-15.99 13.992-21.988-11.993-15.99 11.993-23.987-11.993-11.993 11.993-379.782-23.986z" transform="matrix(-.5 0 0 .5 9.773 -24.906)"/><path fill="#384241" d="m1530.172 775.19-38.063-39.091c-95.821-59.828-165.244-95.66-259.109-158.237l-3 24.5c97.428 61.57 199.032 117.165 300.172 172.829z" transform="matrix(-.5 0 0 .5 950.558 -65.392)"/><path fill="#6b6c6d" d="M1293.127 666.735c-1.828-7.32 6.453-14.233 12.298-19.005 7.129-5.822 16.883-12.66 25.713-10.062 7.938 2.335 11.436 12.45 14.534 20.123 2.959 7.33 8.855 17.801 3.354 23.478-2.35 2.423-7.352.892-10.062-1.118-2.28-1.691-2.883-5.027-3.354-7.826-.868-5.158 2.137-10.522 1.118-15.652-.812-4.086-1.622-9.908-5.59-11.18-6.826-2.187-13.93 5.001-19.006 10.062-4.486 4.473-2.867 14.977-8.943 16.77-3.68 1.086-9.133-1.868-10.062-5.59zM1373.909 679.717c-1.923 5.53 9.531 12.66 14.142 13.435 4.61.775 3.28-5.208 7.778-3.536 4.498 1.672 7.437 12.38 8.485 18.385 1.048 6.005-2.802 12.454-1.414 16.264 1.388 3.809 2.819 5.5 5.657 5.656 2.838.158 5.215-1.2 7.07-5.656 1.857-4.457-.842-14.126-2.12-19.8-1.28-5.673-1.05-9.248-4.95-14.141-3.9-4.894-12.904-10.536-19.092-12.021-6.188-1.486-13.634-4.116-15.556 1.414zM1421.285 715.072l18.384-4.95-5.656-4.242 27.577 14.85-2.122 2.828 14.85 26.87-3.536 9.9h-6.364l-6.364-13.436-11.314-25.456-9.192 3.536zM1477.853 740.528l16.97-6.364 16.264 10.607 5.657 3.535 12.02-.707 4.95 32.527-8.485 2.121-7.07-24.041-11.314-4.243-5.657-16.97 2.828 10.606-10.606 2.121z" transform="matrix(-.5 0 0 .5 950.558 -65.392)"/></svg>